<svg width="230" height="138" viewBox="0 0 230 138" fill="none" xmlns="http://www.w3.org/2000/svg">
<path fill-rule="evenodd" clip-rule="evenodd" d="M148.164 29.6273C154.374 12.5572 168.766 0 186.19 0H202.756V6.46571C202.756 32.7583 184.696 54.948 161.298 54.948H157.837V85.9971C157.837 86.2744 157.817 86.5416 157.778 86.7983V129.9C157.778 132.52 157.173 134.478 155.964 135.774C154.784 137.069 153.229 137.717 151.299 137.717C149.457 137.717 147.931 137.069 146.721 135.774C145.541 134.449 144.95 132.491 144.95 129.9V86.5872C144.929 86.3871 144.919 86.1897 144.919 85.9971V66.9527H141.271C117.853 66.9527 100 44.7393 100 18.4704V12.0047H116.379C129.286 12.0047 140.655 19.0871 148.164 29.6273ZM158.226 42.0166H161.298C174.787 42.0166 186.749 30.0617 189.269 12.9314H186.19C172.885 12.9314 160.777 25.0347 158.226 42.0166ZM113.302 24.9362H116.379C129.849 24.9362 141.814 37.0283 144.346 54.0213H141.271C127.947 54.0213 115.842 42.0552 113.302 24.9362ZM96.0145 88.6949L106.251 126.66C107.086 129.626 107.734 131.728 108.194 132.966C108.655 134.175 109.476 135.27 110.656 136.249C111.837 137.228 113.406 137.717 115.364 137.717C117.437 137.717 119.035 137.213 120.158 136.205C121.31 135.198 122.116 134.031 122.577 132.707C123.067 131.354 123.671 129.237 124.391 126.358L134.93 83.7279C135.563 81.1364 135.88 79.2504 135.88 78.0698C135.88 76.3998 135.29 75.0177 134.109 73.9235C132.957 72.8005 131.547 72.239 129.877 72.239C128.206 72.239 126.925 72.6709 126.032 73.5348C125.169 74.3986 124.55 75.3776 124.175 76.4718C123.83 77.5659 123.455 79.0777 123.052 81.0069L114.76 117.979L105.387 83.3824C104.61 80.5318 103.99 78.4874 103.53 77.2492C103.069 76.0111 102.234 74.8737 101.025 73.8371C99.8441 72.7717 98.174 72.239 96.0145 72.239C93.8837 72.239 92.1992 72.7429 90.9611 73.7507C89.7229 74.7585 88.8303 75.9535 88.2832 77.3356C87.7361 78.7177 87.117 80.7333 86.426 83.3824L77.1398 117.979L68.8471 81.0069C68.2424 78.1562 67.5369 75.9823 66.7307 74.485C65.9245 72.9877 64.3552 72.239 62.0228 72.239C60.324 72.239 58.8987 72.8005 57.7469 73.9235C56.5951 75.0465 56.0192 76.4286 56.0192 78.0698C56.0192 79.3656 56.336 81.2516 56.9694 83.7279L67.5081 126.358C67.8249 127.625 68.1848 129.007 68.5879 130.504C68.991 131.973 69.5093 133.254 70.1428 134.348C70.7763 135.414 71.5969 136.234 72.6047 136.81C73.6413 137.415 74.9515 137.717 76.5351 137.717C78.4931 137.717 80.0624 137.228 81.243 136.249C82.4236 135.241 83.2442 134.118 83.7049 132.88C84.1944 131.613 84.8423 129.54 85.6485 126.66L96.0145 88.6949ZM33.2574 83.9007H47.2514C49.4397 83.9007 51.081 83.4256 52.1752 82.4754C53.2694 81.4964 53.8165 80.215 53.8165 78.6313C53.8165 77.0477 53.2694 75.7663 52.1752 74.7873C51.1098 73.8083 49.4685 73.3188 47.2514 73.3188H6.47871C4.37673 73.3188 2.76425 73.7939 1.64127 74.7441C0.547091 75.6943 0 76.9901 0 78.6313C0 80.215 0.532694 81.4964 1.59808 82.4754C2.66347 83.4256 4.29034 83.9007 6.47871 83.9007H20.4727V129.9C20.4727 132.52 21.063 134.478 22.2436 135.774C23.4529 137.069 25.0078 137.717 26.9082 137.717C28.7799 137.717 30.306 137.084 31.4865 135.817C32.6671 134.521 33.2574 132.549 33.2574 129.9V83.9007ZM229.994 123.032V110.895C229.994 108.707 229.605 107.066 228.828 105.971C228.079 104.877 227.086 104.172 225.848 103.855C224.61 103.538 223.098 103.38 221.313 103.38H206.757C205.001 103.38 203.604 103.841 202.568 104.762C201.56 105.684 201.056 106.85 201.056 108.261C201.056 109.988 201.661 111.212 202.87 111.932C204.108 112.652 205.922 113.012 208.312 113.012H218.246V123.291C215.568 124.731 212.919 125.84 210.299 126.617C207.707 127.394 204.929 127.783 201.963 127.783C195.859 127.783 191.093 125.782 187.667 121.78C184.269 117.777 182.57 112.061 182.57 104.633C182.57 101.206 183.002 98.0819 183.866 95.26C184.758 92.4382 186.025 90.0627 187.667 88.1334C189.337 86.1754 191.338 84.6925 193.67 83.6847C196.003 82.6481 198.652 82.1298 201.617 82.1298C204.497 82.1298 206.858 82.5618 208.701 83.4256C210.572 84.2894 212.055 85.3548 213.15 86.6217C214.244 87.8887 215.583 89.7603 217.166 92.2366C217.742 93.0141 218.448 93.6188 219.283 94.0507C220.146 94.4826 221.039 94.6985 221.961 94.6985C223.631 94.6985 225.056 94.137 226.236 93.0141C227.446 91.8623 228.051 90.4802 228.051 88.8677C228.051 87.3704 227.532 85.6571 226.496 83.7279C225.459 81.7987 223.919 79.9703 221.874 78.2426C219.83 76.515 217.166 75.0896 213.884 73.9667C210.601 72.8149 206.829 72.239 202.568 72.239C197.385 72.239 192.749 73.0021 188.66 74.5282C184.571 76.0255 181.101 78.1994 178.251 81.0501C175.4 83.9007 173.241 87.3704 171.772 91.4592C170.304 95.548 169.569 100.054 169.569 104.978C169.569 109.988 170.318 114.523 171.815 118.583C173.341 122.643 175.515 126.099 178.337 128.949C181.159 131.8 184.571 133.974 188.574 135.471C192.576 136.969 197.01 137.717 201.877 137.717C206.052 137.717 209.91 137.242 213.452 136.292C216.994 135.342 220.679 133.83 224.509 131.757C225.833 131.037 226.913 130.288 227.748 129.511C228.612 128.733 229.202 127.87 229.519 126.919C229.836 125.94 229.994 124.645 229.994 123.032Z" fill="url(#paint0_linear)"/>
<defs>
<linearGradient id="paint0_linear" x1="151.628" y1="0" x2="151.628" y2="90.9622" gradientUnits="userSpaceOnUse">
<stop stop-color="#00BF6C"/>
<stop offset="1" stop-color="#00BF6C" stop-opacity="0.76"/>
</linearGradient>
</defs>
</svg>
